
<svg viewBox="89 108 392 91" xmlns="http://www.w3.org/2000/svg"><path d="M159.178 155.888c0-2.035-.228-4.193-.567-6.228 0 0 0 0 0 0s0 0 0 0 0 0 0 0 0 0 0 0c-1.927-9.528-8.157-17.788-16.995-22.616v-14.358c0-3.051-2.152-5.465-4.872-5.465h-25.491c-2.72 0-4.872 2.414-4.872 5.465v14.484c-8.383 4.576-14.616 12.327-16.767 21.349 0 0 0 0 0 0s0 0 0 0 0 0 0 0 0 0 0 0c-.567 2.414-.907 4.827-.907 7.369 0 11.689 5.891 24.142 14.729 31.638a5.858 5.858 0 00-1.358 2.669l-.342 1.907c-.341 1.396 0 2.796.793 3.939.907 1.269 2.266 1.905 3.966 1.905h35.009c1.586 0 3.058-.76 3.964-1.905.793-1.143 1.02-2.543.793-3.81l-.34-1.907c-.227-1.017-.679-1.907-1.359-2.543 8.724-7.751 14.616-20.075 14.616-31.893zm-48.264-43.202c0-.255.113-.382.339-.382h25.377c.228 0 .342.127.342.382v12.451h-26.058v-12.451zm.339 17.661h25.377c8.271 3.432 14.275 9.912 16.769 17.792h-.113c-.34 0-.679 0-1.021.125H150.001c-5.667 0-8.385-1.143-11.216-2.288-3.173-1.269-6.346-2.541-12.804-2.541-6.343 0-9.63 1.272-12.803 2.541-2.945 1.145-5.663 2.288-11.216 2.288h-1.813c-.338 0-.793 0-1.13-.125h-.23c-.451 0-.791-.13-1.132-.13h-.34c-.341 0-.567-.126-.792-.126h-.228c-.339 0-.679-.126-.905-.255h-.227c-.114 0-.226-.126-.34-.126 2.492-7.626 8.497-13.851 16.428-17.155zm30.136 62.517h-35.12l.338-1.397c.113-.255.68-.764 1.359-.764h31.951c.793 0 1.36.509 1.36.764l.339 1.524c0-.127-.112-.127-.227-.127zm-2.265-7.369h-30.363c-9.177-6.227-15.523-18.299-15.523-29.607 0-1.143.114-2.414.228-3.557.225 0 .339.126.565.126h.229c.338.127.679.127 1.132.255h.34c.341 0 .679.126 1.018.126h.34c.453 0 .908.127 1.36.127h.227c.455 0 .793 0 1.246.128H102.078c6.344 0 9.628-1.272 12.799-2.541 2.947-1.145 5.667-2.288 11.218-2.288 5.663 0 8.383 1.143 11.216 2.288 3.171 1.269 6.344 2.541 12.802 2.541h2.833c.453 0 .907-.128 1.474-.128h.339c.114.888.114 1.907.114 2.797-.228 11.434-6.572 23.506-15.749 29.733z" stroke-miterlimit="5" fill="none" paint-order="fill" stroke="#05aac5"/><path class="st0" d="M124.999 176.395a7.465 7.465 0 01-7.46-7.46c0-4.003 6.752-11.069 7.039-11.366l.354-.372.361.363c.297.297 7.164 7.363 7.164 11.365 0 4.126-3.342 7.47-7.458 7.47zm-.058-17.755a50.892 50.892 0 00-3.066 3.648c-2.185 2.884-3.343 5.177-3.343 6.637 0 3.562 2.904 6.466 6.467 6.466 3.561 0 6.465-2.904 6.465-6.466 0-1.46-1.176-3.753-3.4-6.637a53.26 53.26 0 00-3.123-3.648z" fill="#05aac5"/><path class="st1" d="M124.999 178.781c-5.435 0-9.847-4.423-9.847-9.846 0-5.311 7.411-12.722 7.725-13.027a.509.509 0 01.708 0 .505.505 0 010 .706c-.076.078-7.431 7.431-7.431 12.321 0 4.88 3.975 8.854 8.854 8.854s8.854-3.974 8.854-8.854c0-2.006-1.298-4.776-3.763-8.032-1.891-2.492-3.793-4.385-3.811-4.403a.492.492 0 010-.707.489.489 0 01.706 0c.326.316 7.87 7.822 7.87 13.142-.018 5.423-4.431 9.846-9.865 9.846z" fill="#05aac5"/><path class="st2" d="M124.999 181.168c-6.609 0-11.985-5.376-11.985-11.985 0-2.732 1.374-6.093 4.076-9.981 1.995-2.864 3.954-4.908 4.039-4.993a.5.5 0 01.708-.011.495.495 0 01.009.706c-.018.02-1.995 2.082-3.944 4.881-2.55 3.659-3.897 6.906-3.897 9.398 0 6.055 4.928 10.994 10.994 10.994 6.064 0 10.992-4.93 10.992-10.994 0-2.492-1.356-5.739-3.926-9.398a44.591 44.591 0 00-3.982-4.881.496.496 0 01.011-.706.497.497 0 01.705.011c.334.343 8.185 8.498 8.185 14.974 0 6.609-5.376 11.985-11.985 11.985z" fill="#05aac5"/><path d="M189.479 171.788h-14.94c-2.04 0-3.54-.09-4.5-.27-.96-.18-1.44-.39-1.44-.63l1.8-3.91c.693.12 2.41.23 5.15.33 2.747.107 6.52.16 11.32.16h.85c1.293 0 2.21-.233 2.75-.7.54-.46.81-1.247.81-2.36v-.9c0-1.053-.217-1.803-.65-2.25-.44-.453-1.41-.68-2.91-.68h-10.44c-3.027 0-5.23-.56-6.61-1.68-1.38-1.127-2.07-2.963-2.07-5.51v-.73c0-1.32.247-2.533.74-3.64.493-1.107 1.34-2 2.54-2.68 1.207-.673 2.857-1.01 4.95-1.01h12.25c2.033 0 3.683.107 4.95.32 1.26.207 1.89.43 1.89.67l-.91 3.78c-.773-.087-2.543-.183-5.31-.29-2.76-.107-6.463-.16-11.11-.16l-.49-.04c-1.38 0-2.313.277-2.8.83-.473.553-.727 1.25-.76 2.09v.76c0 .993.277 1.737.83 2.23.553.5 1.477.75 2.77.75h9.99c1.92 0 3.553.193 4.9.58 1.353.393 2.39 1.107 3.11 2.14.72 1.033 1.08 2.557 1.08 4.57v.72c0 2.247-.577 4.06-1.73 5.44-1.153 1.38-3.157 2.07-6.01 2.07zm38.61 0h-24.57v-26.46h27.99v4.32h-22.05v6.21h16.83v4.46h-16.83v7.15h22.23l1.8 3.83c0 .113-.407.223-1.22.33-.807.107-2.2.16-4.18.16zm38.65.45c-1.2 0-2.377-.187-3.53-.56-1.153-.373-2.467-1.297-3.94-2.77l-3.24-3.24c-1.32-1.347-2.767-2.337-4.34-2.97s-3.547-.95-5.92-.95h-1.39v10.04h-5.94v-22.86l-.45-3.64h19.94c1.913 0 3.42.253 4.52.76 1.093.513 1.903 1.18 2.43 2a7.06 7.06 0 011.01 2.63c.147.933.22 1.82.22 2.66v.86c0 .653-.09 1.387-.27 2.2-.18.813-.523 1.61-1.03 2.39-.513.78-1.24 1.437-2.18 1.97-.947.547-2.187.863-3.72.95.393.213.89.537 1.49.97.6.433 1.223.907 1.87 1.42.64.507 1.23.97 1.77 1.39.54.42.96.72 1.26.9 1.08.627 2.043 1.063 2.89 1.31.833.24 1.523.373 2.07.4.533.027.847.04.94.04l-.9 3.65c-.273.093-.723.19-1.35.29-.627.107-1.363.16-2.21.16zm-15.61-14.58c1.14 0 2.16-.023 3.06-.07.9-.04 1.71-.09 2.43-.15 1.32-.153 2.243-.523 2.77-1.11.527-.587.79-1.343.79-2.27v-1.04c0-.953-.257-1.763-.77-2.43-.513-.653-1.43-.98-2.75-.98h-12.28v7.83c1.32.087 2.533.147 3.64.18 1.113.027 2.15.04 3.11.04zm44.77 14.58h-13.99c-2.727 0-4.633-.733-5.72-2.2-1.08-1.473-1.62-3.423-1.62-5.85v-18.86h5.95v19.04c0 1.407.343 2.35 1.03 2.83s1.54.72 2.56.72h9.54c.967 0 1.807-.247 2.52-.74.727-.493 1.09-1.43 1.09-2.81v-19.04h5.93v18.86c0 1.62-.223 3.027-.67 4.22-.447 1.207-1.197 2.147-2.25 2.82s-2.51 1.01-4.37 1.01zm20.21-.45h-5.94v-22.86l-.45-3.6h6.84l10.17 18 10.53-18h6.07v26.46h-5.94v-16.79h-.49l-1.76 3.92-5.66 10.17h-5.45l-5.67-10.17-1.8-3.92h-.45v16.79zm48.825-9.9h-14.4v-5.22h14.4v5.22zm23.8 9.9h-7.2l-12.55-26.41h6.3l8.46 18.22 1.22 3.24h.4l1.17-3.24 8.55-18.22h6.12l-.72 2.7-11.75 23.71zm22.46 0h-5.94v-26.46h5.94v26.46zm10.17 0h-6.57l13.18-26.46h8.87l13.14 26.46h-6.93l-2.65-5.71h-16.12l-2.92 5.71zm10.75-22.41l-6.2 12.28h12.82l-6.17-12.28h-.45zm42.89 22.41h-21.42l.45-3.6v-22.86h5.94v22.14h18.63l1.8 3.83c0 .113-.407.223-1.22.33-.807.107-2.2.16-4.18.16z" style="white-space:pre" fill="none" stroke="#05aac5"/></svg>