<svg viewBox="79.837 99.108 411.622 110.706" xmlns="http://www.w3.org/2000/svg">
  <path d="M 159.178 155.888 C 159.178 153.853 158.95 151.695 158.611 149.66 C 158.611 149.66 158.611 149.66 158.611 149.66 C 158.611 149.66 158.611 149.66 158.611 149.66 C 158.611 149.66 158.611 149.66 158.611 149.66 C 158.611 149.66 158.611 149.66 158.611 149.66 C 156.684 140.132 150.454 131.872 141.616 127.044 L 141.616 112.686 C 141.616 109.635 139.464 107.221 136.744 107.221 L 111.253 107.221 C 108.533 107.221 106.381 109.635 106.381 112.686 L 106.381 127.17 C 97.998 131.746 91.765 139.497 89.614 148.519 C 89.614 148.519 89.614 148.519 89.614 148.519 C 89.614 148.519 89.614 148.519 89.614 148.519 C 89.614 148.519 89.614 148.519 89.614 148.519 C 89.614 148.519 89.614 148.519 89.614 148.519 C 89.047 150.933 88.707 153.346 88.707 155.888 C 88.707 167.577 94.598 180.03 103.436 187.526 C 102.757 188.29 102.302 189.181 102.078 190.195 L 101.736 192.102 C 101.395 193.498 101.736 194.898 102.529 196.041 C 103.436 197.31 104.795 197.946 106.495 197.946 L 141.504 197.946 C 143.09 197.946 144.562 197.186 145.468 196.041 C 146.261 194.898 146.488 193.498 146.261 192.231 L 145.921 190.324 C 145.694 189.307 145.242 188.417 144.562 187.781 C 153.286 180.03 159.178 167.706 159.178 155.888 Z M 110.914 112.686 C 110.914 112.431 111.027 112.304 111.253 112.304 L 136.63 112.304 C 136.858 112.304 136.972 112.431 136.972 112.686 L 136.972 125.137 L 110.914 125.137 L 110.914 112.686 Z M 111.253 130.347 L 136.63 130.347 C 144.901 133.779 150.905 140.259 153.399 148.139 C 153.399 148.139 153.286 148.139 153.286 148.139 C 152.946 148.139 152.607 148.139 152.265 148.264 C 152.04 148.264 151.928 148.264 151.698 148.264 C 151.135 148.264 150.568 148.264 150.001 148.264 C 144.334 148.264 141.616 147.121 138.785 145.976 C 135.612 144.707 132.439 143.435 125.981 143.435 C 119.638 143.435 116.351 144.707 113.178 145.976 C 110.233 147.121 107.515 148.264 101.962 148.264 C 101.509 148.264 100.944 148.264 100.49 148.264 C 100.377 148.264 100.263 148.264 100.149 148.264 C 99.811 148.264 99.356 148.264 99.019 148.139 C 98.903 148.139 98.903 148.139 98.789 148.139 C 98.338 148.139 97.998 148.009 97.657 148.009 C 97.543 148.009 97.431 148.009 97.317 148.009 C 96.976 148.009 96.75 147.883 96.525 147.883 C 96.411 147.883 96.411 147.883 96.297 147.883 C 95.958 147.883 95.618 147.757 95.392 147.628 C 95.279 147.628 95.279 147.628 95.165 147.628 C 95.051 147.628 94.939 147.502 94.825 147.502 C 97.317 139.876 103.322 133.651 111.253 130.347 Z M 141.389 192.864 L 106.495 192.864 C 106.381 192.864 106.381 192.864 106.269 192.864 L 106.607 191.467 C 106.72 191.212 107.287 190.703 107.966 190.703 L 139.917 190.703 C 140.71 190.703 141.277 191.212 141.277 191.467 L 141.616 192.991 C 141.616 192.864 141.504 192.864 141.389 192.864 Z M 139.124 185.495 L 108.761 185.495 C 99.584 179.268 93.238 167.196 93.238 155.888 C 93.238 154.745 93.352 153.474 93.466 152.331 C 93.691 152.331 93.805 152.457 94.031 152.457 C 94.145 152.457 94.145 152.457 94.26 152.457 C 94.598 152.584 94.939 152.584 95.392 152.712 C 95.506 152.712 95.618 152.712 95.732 152.712 C 96.073 152.712 96.411 152.838 96.75 152.838 C 96.864 152.838 96.976 152.838 97.09 152.838 C 97.543 152.838 97.998 152.965 98.45 152.965 C 98.565 152.965 98.677 152.965 98.677 152.965 C 99.132 152.965 99.47 152.965 99.923 153.093 C 100.035 153.093 100.263 153.093 100.377 153.093 C 100.944 153.093 101.509 153.093 102.078 153.093 C 108.422 153.093 111.706 151.821 114.877 150.552 C 117.824 149.407 120.544 148.264 126.095 148.264 C 131.758 148.264 134.478 149.407 137.311 150.552 C 140.482 151.821 143.655 153.093 150.113 153.093 C 150.905 153.093 151.584 153.093 152.265 153.093 C 152.495 153.093 152.719 153.093 152.946 153.093 C 153.399 153.093 153.853 152.965 154.42 152.965 C 154.532 152.965 154.645 152.965 154.759 152.965 C 154.873 153.853 154.873 154.872 154.873 155.762 C 154.645 167.196 148.301 179.268 139.124 185.495 Z" style="stroke-miterlimit: 5; fill: none; paint-order: fill; stroke: rgb(5, 170, 197);"/>
  <path class="st0" d="M 124.999 176.395 C 120.882 176.395 117.539 173.051 117.539 168.935 C 117.539 164.932 124.291 157.866 124.578 157.569 L 124.932 157.197 L 125.293 157.56 C 125.59 157.857 132.457 164.923 132.457 168.925 C 132.457 173.051 129.115 176.395 124.999 176.395 L 124.999 176.395 Z M 124.941 158.64 C 124.349 159.28 123.107 160.663 121.875 162.288 C 119.69 165.172 118.532 167.465 118.532 168.925 C 118.532 172.487 121.436 175.391 124.999 175.391 C 128.56 175.391 131.464 172.487 131.464 168.925 C 131.464 167.465 130.288 165.172 128.064 162.288 C 126.812 160.674 125.543 159.28 124.941 158.64 Z" style="stroke-opacity: 0.6; fill: rgb(5, 170, 197);"/>
  <path class="st1" d="M 124.999 178.781 C 119.564 178.781 115.152 174.358 115.152 168.935 C 115.152 163.624 122.563 156.213 122.877 155.908 C 123.069 155.717 123.394 155.717 123.585 155.908 C 123.777 156.098 123.777 156.425 123.585 156.614 C 123.509 156.692 116.154 164.045 116.154 168.935 C 116.154 173.815 120.129 177.789 125.008 177.789 C 129.887 177.789 133.862 173.815 133.862 168.935 C 133.862 166.929 132.564 164.159 130.099 160.903 C 128.208 158.411 126.306 156.518 126.288 156.5 C 126.088 156.309 126.088 155.993 126.288 155.793 C 126.478 155.592 126.794 155.592 126.994 155.793 C 127.32 156.109 134.864 163.615 134.864 168.935 C 134.846 174.358 130.433 178.781 124.999 178.781 L 124.999 178.781 Z" style="stroke-opacity: 0.6; fill: rgb(5, 170, 197);"/>
  <path class="st2" d="M 124.999 181.168 C 118.39 181.168 113.014 175.792 113.014 169.183 C 113.014 166.451 114.388 163.09 117.09 159.202 C 119.085 156.338 121.044 154.294 121.129 154.209 C 121.322 154.008 121.637 154.008 121.837 154.198 C 122.039 154.389 122.039 154.704 121.846 154.904 C 121.828 154.924 119.851 156.986 117.902 159.785 C 115.352 163.444 114.005 166.691 114.005 169.183 C 114.005 175.238 118.933 180.177 124.999 180.177 C 131.063 180.177 135.991 175.247 135.991 169.183 C 135.991 166.691 134.635 163.444 132.065 159.785 C 130.099 156.986 128.103 154.924 128.083 154.904 C 127.892 154.704 127.892 154.389 128.094 154.198 C 128.293 154.008 128.609 154.008 128.799 154.209 C 129.133 154.552 136.984 162.707 136.984 169.183 C 136.984 175.792 131.608 181.168 124.999 181.168 Z" style="stroke-opacity: 0.6; fill: rgb(5, 170, 197);"/>
  <path d="M 189.479 171.788 L 174.539 171.788 C 172.499 171.788 170.999 171.698 170.039 171.518 C 169.079 171.338 168.599 171.128 168.599 170.888 L 170.399 166.978 C 171.092 167.098 172.809 167.208 175.549 167.308 C 178.296 167.415 182.069 167.468 186.869 167.468 L 187.719 167.468 C 189.012 167.468 189.929 167.235 190.469 166.768 C 191.009 166.308 191.279 165.521 191.279 164.408 L 191.279 163.508 C 191.279 162.455 191.062 161.705 190.629 161.258 C 190.189 160.805 189.219 160.578 187.719 160.578 L 177.279 160.578 C 174.252 160.578 172.049 160.018 170.669 158.898 C 169.289 157.771 168.599 155.935 168.599 153.388 L 168.599 152.658 C 168.599 151.338 168.846 150.125 169.339 149.018 C 169.832 147.911 170.679 147.018 171.879 146.338 C 173.086 145.665 174.736 145.328 176.829 145.328 L 189.079 145.328 C 191.112 145.328 192.762 145.435 194.029 145.648 C 195.289 145.855 195.919 146.078 195.919 146.318 L 195.009 150.098 C 194.236 150.011 192.466 149.915 189.699 149.808 C 186.939 149.701 183.236 149.648 178.589 149.648 L 178.099 149.608 C 176.719 149.608 175.786 149.885 175.299 150.438 C 174.826 150.991 174.572 151.688 174.539 152.528 L 174.539 153.288 C 174.539 154.281 174.816 155.025 175.369 155.518 C 175.922 156.018 176.846 156.268 178.139 156.268 L 188.129 156.268 C 190.049 156.268 191.682 156.461 193.029 156.848 C 194.382 157.241 195.419 157.955 196.139 158.988 C 196.859 160.021 197.219 161.545 197.219 163.558 L 197.219 164.278 C 197.219 166.525 196.642 168.338 195.489 169.718 C 194.336 171.098 192.332 171.788 189.479 171.788 Z M 228.089 171.788 L 203.519 171.788 L 203.519 145.328 L 231.509 145.328 L 231.509 149.648 L 209.459 149.648 L 209.459 155.858 L 226.289 155.858 L 226.289 160.318 L 209.459 160.318 L 209.459 167.468 L 231.689 167.468 L 233.489 171.298 C 233.489 171.411 233.082 171.521 232.269 171.628 C 231.462 171.735 230.069 171.788 228.089 171.788 Z M 266.739 172.238 C 265.539 172.238 264.362 172.051 263.209 171.678 C 262.056 171.305 260.742 170.381 259.269 168.908 L 256.029 165.668 C 254.709 164.321 253.262 163.331 251.689 162.698 C 250.116 162.065 248.142 161.748 245.769 161.748 L 244.379 161.748 L 244.379 171.788 L 238.439 171.788 L 238.439 148.928 L 237.989 145.288 L 257.929 145.288 C 259.842 145.288 261.349 145.541 262.449 146.048 C 263.542 146.561 264.352 147.228 264.879 148.048 C 265.399 148.875 265.736 149.751 265.889 150.678 C 266.036 151.611 266.109 152.498 266.109 153.338 L 266.109 154.198 C 266.109 154.851 266.019 155.585 265.839 156.398 C 265.659 157.211 265.316 158.008 264.809 158.788 C 264.296 159.568 263.569 160.225 262.629 160.758 C 261.682 161.305 260.442 161.621 258.909 161.708 C 259.302 161.921 259.799 162.245 260.399 162.678 C 260.999 163.111 261.622 163.585 262.269 164.098 C 262.909 164.605 263.499 165.068 264.039 165.488 C 264.579 165.908 264.999 166.208 265.299 166.388 C 266.379 167.015 267.342 167.451 268.189 167.698 C 269.022 167.938 269.712 168.071 270.259 168.098 C 270.792 168.125 271.106 168.138 271.199 168.138 L 270.299 171.788 C 270.026 171.881 269.576 171.978 268.949 172.078 C 268.322 172.185 267.586 172.238 266.739 172.238 Z M 251.129 157.658 C 252.269 157.658 253.289 157.635 254.189 157.588 C 255.089 157.548 255.899 157.498 256.619 157.438 C 257.939 157.285 258.862 156.915 259.389 156.328 C 259.916 155.741 260.179 154.985 260.179 154.058 L 260.179 153.018 C 260.179 152.065 259.922 151.255 259.409 150.588 C 258.896 149.935 257.979 149.608 256.659 149.608 L 244.379 149.608 L 244.379 157.438 C 245.699 157.525 246.912 157.585 248.019 157.618 C 249.132 157.645 250.169 157.658 251.129 157.658 Z M 295.899 172.238 L 281.909 172.238 C 279.182 172.238 277.276 171.505 276.189 170.038 C 275.109 168.565 274.569 166.615 274.569 164.188 L 274.569 145.328 L 280.519 145.328 L 280.519 164.368 C 280.519 165.775 280.862 166.718 281.549 167.198 C 282.236 167.678 283.089 167.918 284.109 167.918 L 293.649 167.918 C 294.616 167.918 295.456 167.671 296.169 167.178 C 296.896 166.685 297.259 165.748 297.259 164.368 L 297.259 145.328 L 303.189 145.328 L 303.189 164.188 C 303.189 165.808 302.966 167.215 302.519 168.408 C 302.072 169.615 301.322 170.555 300.269 171.228 C 299.216 171.901 297.759 172.238 295.899 172.238 Z M 316.109 171.788 L 310.169 171.788 L 310.169 148.928 L 309.719 145.328 L 316.559 145.328 L 326.729 163.328 L 337.259 145.328 L 343.329 145.328 L 343.329 171.788 L 337.389 171.788 L 337.389 154.998 L 336.899 154.998 L 335.139 158.918 L 329.479 169.088 L 324.029 169.088 L 318.359 158.918 L 316.559 154.998 L 316.109 154.998 L 316.109 171.788 Z M 364.934 161.888 L 350.534 161.888 L 350.534 156.668 L 364.934 156.668 L 364.934 161.888 Z M 388.734 171.788 L 381.534 171.788 L 368.984 145.378 L 375.284 145.378 L 383.744 163.598 L 384.964 166.838 L 385.364 166.838 L 386.534 163.598 L 395.084 145.378 L 401.204 145.378 L 400.484 148.078 L 388.734 171.788 Z M 411.194 171.788 L 405.254 171.788 L 405.254 145.328 L 411.194 145.328 L 411.194 171.788 Z M 421.364 171.788 L 414.794 171.788 L 427.974 145.328 L 436.844 145.328 L 449.984 171.788 L 443.054 171.788 L 440.404 166.078 L 424.284 166.078 L 421.364 171.788 Z M 432.114 149.378 L 425.914 161.658 L 438.734 161.658 L 432.564 149.378 L 432.114 149.378 Z M 475.004 171.788 L 453.584 171.788 L 454.034 168.188 L 454.034 145.328 L 459.974 145.328 L 459.974 167.468 L 478.604 167.468 L 480.404 171.298 C 480.404 171.411 479.997 171.521 479.184 171.628 C 478.377 171.735 476.984 171.788 475.004 171.788 Z" style="white-space: pre; fill: none; stroke: rgb(5, 170, 197);"/>
</svg>