<svg viewBox="40.211 11.566 640 320" xmlns="http://www.w3.org/2000/svg"><path d="M181.52 164.355c0-2.912-.326-6.001-.811-8.914 0 0 0 0 0 0s0 0 0 0 0 0 0 0 0 0 0 0c-2.758-13.639-11.676-25.462-24.327-32.373v-20.551c0-4.368-3.08-7.823-6.973-7.823h-36.488c-3.893 0-6.974 3.455-6.974 7.823v20.732c-11.999 6.55-20.921 17.644-24 30.558 0 0 0 0 0 0s0 0 0 0 0 0 0 0 0 0 0 0c-.811 3.456-1.298 6.91-1.298 10.548 0 16.732 8.432 34.557 21.083 45.287a8.386 8.386 0 00-1.944 3.82l-.489 2.73c-.489 1.998 0 4.002 1.135 5.638 1.298 1.816 3.243 2.727 5.677 2.727h50.111c2.27 0 4.377-1.088 5.674-2.727 1.135-1.636 1.46-3.64 1.135-5.454l-.487-2.729c-.324-1.456-.971-2.73-1.945-3.64 12.488-11.095 20.921-28.735 20.921-45.652zm-69.084-61.838c0-.365.162-.547.485-.547h36.324c.327 0 .49.182.49.547v17.822h-37.299v-17.822zm.485 25.279h36.324c11.839 4.913 20.434 14.188 24.003 25.468h-.161c-.487 0-.972 0-1.462.178H168.385c-8.112 0-12.003-1.636-16.055-3.275-4.542-1.816-9.084-3.637-18.327-3.637-9.08 0-13.785 1.821-18.326 3.637-4.216 1.639-8.106 3.275-16.055 3.275h-2.595c-.484 0-1.135 0-1.618-.178h-.329c-.645 0-1.132-.187-1.62-.187h-.487c-.488 0-.811-.18-1.133-.18h-.327c-.485 0-.972-.18-1.295-.365h-.325c-.163 0-.324-.18-.487-.18 3.567-10.916 12.163-19.826 23.515-24.556zm43.136 89.486H105.787l.484-1.999c.162-.365.973-1.094 1.945-1.094h45.734c1.135 0 1.947.729 1.947 1.094l.485 2.181c0-.182-.16-.182-.325-.182zm-3.242-10.547h-43.461c-13.136-8.914-22.219-26.193-22.219-42.38 0-1.636.163-3.455.326-5.091.322 0 .485.18.809.18h.327c.484.182.972.182 1.621.365h.486c.489 0 .972.181 1.458.181h.486c.649 0 1.3.181 1.947.181h.325c.651 0 1.135 0 1.783.184h3.085c9.081 0 13.781-1.821 18.32-3.638 4.219-1.638 8.112-3.275 16.058-3.275 8.106 0 11.999 1.637 16.054 3.275 4.539 1.817 9.081 3.638 18.325 3.638h4.055c.648 0 1.298-.184 2.11-.184h.485c.163 1.272.163 2.73.163 4.004-.326 16.367-9.407 33.646-22.543 42.56z" stroke-miterlimit="5" fill="none" paint-order="fill" stroke="#05aac5"/><path class="st0" d="M132.597 193.709c-5.893 0-10.678-4.787-10.678-10.678 0-5.73 9.665-15.844 10.075-16.269l.507-.533.517.52c.425.425 10.254 10.539 10.254 16.267 0 5.906-4.783 10.693-10.675 10.693zm-.083-25.414a73.003 73.003 0 00-4.389 5.221c-3.127 4.128-4.785 7.411-4.785 9.5 0 5.099 4.157 9.256 9.257 9.256 5.097 0 9.254-4.157 9.254-9.256 0-2.089-1.683-5.372-4.867-9.5a76.121 76.121 0 00-4.47-5.221z" fill="#05aac5"/><path class="st1" d="M132.597 197.124c-7.78 0-14.095-6.331-14.095-14.093 0-7.602 10.608-18.21 11.058-18.647a.729.729 0 011.013 0 .723.723 0 010 1.011c-.109.111-10.637 10.636-10.637 17.636 0 6.985 5.69 12.673 12.674 12.673 6.984 0 12.673-5.688 12.673-12.673 0-2.872-1.858-6.837-5.386-11.497-2.707-3.567-5.429-6.277-5.455-6.303a.704.704 0 010-1.012.701.701 0 011.011 0c.466.453 11.265 11.197 11.265 18.812-.026 7.762-6.343 14.093-14.121 14.093z" fill="#05aac5"/><path class="st2" d="M132.597 200.541c-9.46 0-17.155-7.695-17.155-17.155 0-3.911 1.966-8.722 5.834-14.287 2.856-4.099 5.66-7.025 5.781-7.147a.717.717 0 011.014-.016.709.709 0 01.013 1.011c-.026.029-2.856 2.98-5.646 6.987-3.65 5.237-5.578 9.885-5.578 13.452 0 8.667 7.054 15.736 15.737 15.736 8.68 0 15.734-7.056 15.734-15.736 0-3.567-1.941-8.215-5.62-13.452-2.814-4.007-5.671-6.958-5.7-6.987a.712.712 0 01.016-1.011.711.711 0 011.009.016c.478.491 11.716 12.164 11.716 21.434 0 9.46-7.695 17.155-17.155 17.155z" fill="#05aac5"/><path d="M221.348 174.376h-21.385c-2.92 0-5.067-.128-6.441-.386-1.374-.258-2.061-.558-2.061-.902l2.576-5.597c.992.172 3.45.33 7.372.473 3.932.153 9.332.229 16.203.229h1.217c1.85 0 3.163-.334 3.936-1.002.773-.659 1.159-1.785 1.159-3.378v-1.288c0-1.508-.31-2.581-.93-3.221-.63-.648-2.018-.973-4.165-.973h-14.944c-4.333 0-7.486-.802-9.462-2.405-1.975-1.613-2.962-4.241-2.962-7.887v-1.045c0-1.889.353-3.626 1.059-5.21.705-1.585 1.918-2.863 3.635-3.836 1.728-.964 4.09-1.446 7.086-1.446h17.534c2.91 0 5.272.153 7.086.458 1.803.296 2.705.615 2.705.959l-1.303 5.411c-1.106-.125-3.64-.262-7.6-.415-3.951-.154-9.251-.229-15.903-.229l-.701-.058c-1.976 0-3.311.397-4.008 1.188-.677.792-1.041 1.79-1.088 2.992v1.088c0 1.421.396 2.486 1.188 3.192.792.715 2.114 1.073 3.965 1.073h14.3c2.748 0 5.085.277 7.013.831 1.937.562 3.421 1.584 4.452 3.063 1.031 1.478 1.546 3.66 1.546 6.541v1.031c0 3.216-.826 5.811-2.476 7.786-1.651 1.976-4.519 2.963-8.603 2.963zm55.266 0h-35.169v-37.874h40.064v6.184h-31.562v8.888h24.09v6.384h-24.09v10.235h31.82l2.576 5.482c0 .162-.582.319-1.746.472-1.155.154-3.149.229-5.983.229zm55.323.645c-1.718 0-3.402-.268-5.053-.802-1.65-.534-3.531-1.856-5.639-3.965l-4.638-4.638c-1.89-1.928-3.961-3.345-6.212-4.251-2.252-.906-5.078-1.36-8.474-1.36h-1.99v14.371h-8.502v-32.721l-.644-5.21h28.541c2.739 0 4.896.362 6.47 1.088 1.565.734 2.724 1.689 3.479 2.862a10.114 10.114 0 011.445 3.765 24.42 24.42 0 01.315 3.807v1.231c0 .935-.129 1.986-.386 3.149-.258 1.164-.749 2.305-1.475 3.421-.734 1.117-1.774 2.057-3.12 2.82-1.356.783-3.13 1.236-5.325 1.36.563.305 1.274.769 2.133 1.389a73.648 73.648 0 012.677 2.032c.916.726 1.76 1.389 2.533 1.99.773.601 1.374 1.03 1.804 1.288 1.546.897 2.924 1.522 4.137 1.875 1.192.344 2.18.534 2.962.573a46.89 46.89 0 001.346.057l-1.288 5.224c-.391.134-1.035.272-1.933.416-.897.153-1.951.229-3.163.229zm-22.344-20.87c1.632 0 3.092-.033 4.38-.1a92.002 92.002 0 003.478-.215c1.89-.219 3.211-.749 3.965-1.589.755-.84 1.131-1.922 1.131-3.249v-1.489c0-1.364-.368-2.523-1.102-3.478-.734-.935-2.047-1.403-3.936-1.403h-17.578v11.208c1.89.125 3.626.21 5.21.258 1.594.038 3.078.057 4.452.057zm64.083 20.87h-20.025c-3.903 0-6.631-1.05-8.187-3.149-1.546-2.109-2.319-4.9-2.319-8.374v-26.996h8.517v27.254c0 2.014.491 3.363 1.474 4.05.983.687 2.204 1.031 3.664 1.031h13.656c1.384 0 2.586-.354 3.607-1.059 1.04-.706 1.56-2.047 1.56-4.022v-27.254h8.488v26.996c0 2.319-.319 4.333-.959 6.04-.64 1.728-1.713 3.074-3.221 4.037-1.507.963-3.592 1.446-6.255 1.446zm28.929-.645h-8.503v-32.721l-.644-5.153h9.791l14.557 25.765 15.073-25.765h8.688v37.874h-8.502v-24.033h-.702l-2.519 5.611-8.102 14.558h-7.801l-8.116-14.558-2.576-5.611h-.644v24.033zm69.887-14.17H451.88v-7.472h20.612v7.472zm34.067 14.17h-10.306l-17.964-37.803h9.018l12.11 26.08 1.746 4.638h.573l1.674-4.638 12.239-26.08h8.76l-1.031 3.865-16.819 33.938zm32.149 0h-8.502v-37.874h8.502v37.874zm14.558 0h-9.405l18.866-37.874h12.696l18.809 37.874h-9.92l-3.793-8.173h-23.074l-4.179 8.173zm15.387-32.077l-8.875 17.577h18.351l-8.832-17.577h-.644zm61.392 32.077h-30.66l.644-5.153v-32.721h8.502v31.691h26.667l2.577 5.482c0 .162-.583.319-1.747.472-1.155.154-3.149.229-5.983.229z" style="white-space:pre" fill="none" stroke="#05aac5"/><path d="M222.519 209.825h-7.79c-1.32 0-2.353-.187-3.1-.56-.747-.373-1.27-.933-1.57-1.68-.3-.747-.45-1.67-.45-2.77v-6.25c0-1.787.4-3.107 1.2-3.96.807-.847 2.113-1.27 3.92-1.27h8.43c1.287 0 2.273.07 2.96.21.68.14 1.02.283 1.02.43l-.56 2.33c-.32-.06-1.26-.123-2.82-.19-1.553-.06-3.817-.09-6.79-.09h-1.42c-1.493 0-2.24.66-2.24 1.98v7.14c0 .64.163 1.13.49 1.47.327.347.91.52 1.75.52h1.14c3.1 0 5.503-.033 7.21-.1 1.713-.06 2.773-.13 3.18-.21l1.15 1.85c0 .093-.153.233-.46.42-.307.187-.873.357-1.7.51-.82.147-2.003.22-3.55.22zm23.799 0h-15.29v-16.46h17.42v2.68h-13.72v3.87h10.47v2.77h-10.47v4.45h13.83l1.12 2.38c0 .073-.253.143-.76.21-.5.067-1.366.1-2.6.1zm8.678 0h-4.48l1.06-1.68 6.22-6.55-7.28-8.23h4.48l5.4 6.18h.31l5.43-6.18h4.48l-1.09 1.65-6.19 6.58 7.28 8.23h-4.48l-5.43-6.24h-.31l-5.4 6.24zm27.443 0h-3.42v-15.51l-.28-2.24h3.7v17.75zm5.346-14.31c-.693 0-1.197-.14-1.51-.42-.32-.28-.48-.747-.48-1.4 0-.673.153-1.143.46-1.41.307-.273.817-.41 1.53-.41.707 0 1.22.137 1.54.41.313.267.47.737.47 1.41 0 .633-.157 1.097-.47 1.39-.32.287-.833.43-1.54.43zm1.71 14.31h-3.42v-12.54h3.42v12.54zm17.074.28c-.78 0-1.447-.093-2-.28-.554-.187-1.137-.587-1.75-1.2-.054-.06-.204-.21-.45-.45-.24-.247-.507-.517-.8-.81-.287-.3-.55-.573-.79-.82a57.86 57.86 0 01-.48-.47c-.467-.467-.91-.83-1.33-1.09-.42-.267-.937-.4-1.55-.4-.414 0-.657.04-.73.12-.074.073-.11.323-.11.75v4.37h-3.42v-17.72h3.42v10.08h.89c.34 0 .64-.133.9-.4.166-.167.483-.5.95-1 .466-.507.993-1.077 1.58-1.71.586-.633 1.123-1.223 1.61-1.77h4.12l-.45.87c-.427.447-.894.92-1.4 1.42-.507.493-.997.967-1.47 1.42-.474.46-.907.863-1.3 1.21-.394.347-.694.573-.9.68.56.3 1.063.643 1.51 1.03.453.38.94.807 1.46 1.28.52.48 1.146 1.017 1.88 1.61.653.527 1.26.83 1.82.91.56.087.893.13 1 .13l-.5 1.96c-.187.053-.44.113-.76.18-.314.067-.63.1-.95.1zm12.933-.28h-5.62c-.933 0-1.653-.12-2.16-.36-.506-.247-.866-.557-1.08-.93a3.045 3.045 0 01-.39-1.17c-.046-.413-.07-.787-.07-1.12v-5.38c0-.28.024-.62.07-1.02.047-.4.177-.797.39-1.19.214-.393.577-.72 1.09-.98.514-.26 1.23-.39 2.15-.39h6.02c1.227 0 2.19.117 2.89.35.7.233 1.197.61 1.49 1.13.287.52.43 1.22.43 2.1v4.14h-4.9c-1.68 0-3.046-.037-4.1-.11-1.053-.073-1.756-.12-2.11-.14v1.54c-.02.747.427 1.12 1.34 1.12h1.43c1.007 0 1.99-.013 2.95-.04a88.761 88.761 0 004.58-.24l1.12 1.82c0 .58-1.84.87-5.52.87zm-5.9-9.02v1.8h7.7v-1.8c0-.373-.043-.633-.13-.78-.086-.147-.333-.24-.74-.28-.413-.04-1.113-.06-2.1-.06h-3.39c-.893 0-1.34.373-1.34 1.12zm22.79 9.02h-4.09l8.2-16.46h5.52l8.18 16.46h-4.32l-1.65-3.56h-10.02l-1.82 3.56zm6.69-13.94l-3.86 7.64h7.98l-3.84-7.64h-.28zm17.335 13.94h-3.7v-14.22l-.28-2.27h12.4c1.2 0 2.14.157 2.82.47.68.32 1.183.737 1.51 1.25.327.513.537 1.06.63 1.64.093.58.14 1.13.14 1.65v1.65c0 .433-.067.913-.2 1.44a4.384 4.384 0 01-.72 1.54c-.36.5-.873.913-1.54 1.24-.673.327-1.553.49-2.64.49h-2.85c-1.18 0-2.277-.03-3.29-.09-1.02-.053-1.78-.1-2.28-.14v5.35zm0-13.8v5.99h7.61c.84 0 1.42-.207 1.74-.62.313-.407.47-.9.47-1.48v-1.77c0-.593-.157-1.097-.47-1.51-.32-.407-.89-.61-1.71-.61h-7.64zm21.14 13.8h-3.7v-16.46h3.7v16.46zm14.105 0h-3.41v-10.14h-1.74v-2.38h1.74v-2.49c0-.633.124-1.22.37-1.76.254-.54.674-.98 1.26-1.32.594-.333 1.374-.5 2.34-.5h1.4c2.24 0 3.85.103 4.83.31.98.2 1.47.377 1.47.53l-.84 2.13c-.313-.133-.883-.26-1.71-.38-.82-.12-1.806-.18-2.96-.18h-1.4c-.466 0-.81.083-1.03.25-.213.167-.32.457-.32.87v2.54h5.83v2.38h-5.83v10.14zm19.402 0h-7.72c-1.253 0-2.183-.253-2.79-.76-.607-.5-.91-1.32-.91-2.46v-5.74c0-.28.023-.62.07-1.02.047-.4.177-.797.39-1.19.213-.393.577-.72 1.09-.98.513-.26 1.23-.39 2.15-.39h7.72c.933 0 1.653.13 2.16.39.507.26.867.587 1.08.98.213.393.343.79.39 1.19.047.4.07.74.07 1.02v5.38c0 .333-.023.707-.07 1.12a2.862 2.862 0 01-.41 1.17c-.22.373-.583.683-1.09.93-.5.24-1.21.36-2.13.36zm-6.66-2.41h5.6c.913 0 1.37-.373 1.37-1.12v-5.49c0-.747-.457-1.12-1.37-1.12h-5.6c-.893 0-1.34.373-1.34 1.12v5.49c0 .747.447 1.12 1.34 1.12zm16.859 2.41h-3.42v-12.54h2.3l1.06.56a6.886 6.886 0 011.57-.62c.56-.147 1.27-.22 2.13-.22 1.36 0 2.464.147 3.31.44.854.3 1.42.527 1.7.68l-.98 2.43c-.226-.113-.596-.257-1.11-.43a14.913 14.913 0 00-1.8-.49c-.693-.153-1.45-.23-2.27-.23h-.31c-.893 0-1.476.18-1.75.54-.273.353-.416.94-.43 1.76v8.12zm29.758 0h-9.29c-1.273 0-2.207-.057-2.8-.17-.6-.113-.9-.243-.9-.39l1.12-2.44c.427.08 1.497.15 3.21.21 1.707.067 4.053.1 7.04.1h.53c.8 0 1.37-.143 1.71-.43.333-.293.5-.783.5-1.47v-.56c0-.653-.133-1.12-.4-1.4-.273-.28-.877-.42-1.81-.42h-6.5c-1.88 0-3.25-.35-4.11-1.05-.86-.7-1.29-1.843-1.29-3.43v-.45c0-.82.153-1.577.46-2.27.307-.687.833-1.24 1.58-1.66.747-.42 1.773-.63 3.08-.63h7.62c1.267 0 2.293.063 3.08.19.787.133 1.18.273 1.18.42l-.56 2.35c-.487-.053-1.59-.113-3.31-.18-1.713-.067-4.017-.1-6.91-.1l-.31-.02c-.86 0-1.44.17-1.74.51-.3.347-.457.783-.47 1.31v.47c0 .62.17 1.083.51 1.39.347.307.923.46 1.73.46h6.21c1.193 0 2.21.12 3.05.36.84.247 1.487.69 1.94 1.33.447.647.67 1.597.67 2.85v.44c0 1.4-.36 2.53-1.08 3.39-.72.86-1.967 1.29-3.74 1.29zm17.217 0h-5.62c-.933 0-1.653-.12-2.16-.36-.506-.247-.866-.557-1.08-.93a3.045 3.045 0 01-.39-1.17c-.046-.413-.07-.787-.07-1.12v-5.38c0-.28.024-.62.07-1.02.047-.4.177-.797.39-1.19.214-.393.577-.72 1.09-.98.514-.26 1.23-.39 2.15-.39h6.02c1.227 0 2.19.117 2.89.35.7.233 1.197.61 1.49 1.13.287.52.43 1.22.43 2.1v4.14h-4.9c-1.68 0-3.046-.037-4.1-.11-1.053-.073-1.756-.12-2.11-.14v1.54c-.02.747.427 1.12 1.34 1.12h1.43c1.007 0 1.99-.013 2.95-.04a88.761 88.761 0 004.58-.24l1.12 1.82c0 .58-1.84.87-5.52.87zm-5.9-9.02v1.8h7.7v-1.8c0-.373-.043-.633-.13-.78-.086-.147-.333-.24-.74-.28-.413-.04-1.113-.06-2.1-.06h-3.39c-.893 0-1.34.373-1.34 1.12zm17.64 9.02h-3.42v-12.54h2.3l1.06.56a6.886 6.886 0 011.57-.62c.56-.147 1.27-.22 2.13-.22 1.36 0 2.463.147 3.31.44.853.3 1.42.527 1.7.68l-.98 2.43c-.227-.113-.597-.257-1.11-.43a14.913 14.913 0 00-1.8-.49c-.693-.153-1.45-.23-2.27-.23h-.31c-.893 0-1.477.18-1.75.54-.273.353-.417.94-.43 1.76v8.12zm15.728 0h-1.42c-.92 0-1.637-.12-2.15-.36-.514-.247-.877-.557-1.09-.93a3.011 3.011 0 01-.39-1.17 9.991 9.991 0 01-.07-1.12v-8.96h3.42v9.01c-.02.413.113.703.4.87.293.167.606.25.94.25h5.54c.413 0 .656-.037.73-.11.073-.073.11-.317.11-.73v-9.29h3.42v12.54h-2.3l-1.06-.56c-.747.147-1.63.277-2.65.39-1.014.113-2.157.17-3.43.17zm16.219 0h-3.42v-12.54h2.3l.7.33c.54-.093 1.2-.173 1.98-.24.787-.06 1.72-.09 2.8-.09h1.4c.547 0 1.07.07 1.57.21.507.14.88.34 1.12.6.487-.247 1.16-.443 2.02-.59.86-.147 1.98-.22 3.36-.22h1.4c.933 0 1.65.13 2.15.39.507.26.867.587 1.08.98.213.393.343.79.39 1.19.047.4.07.74.07 1.02v8.96h-3.41v-9.02c0-.747-.45-1.12-1.35-1.12h-3.92c-.293 0-.497.04-.61.12-.113.073-.17.24-.17.5v9.52h-3.42v-9.02c0-.747-.447-1.12-1.34-1.12h-3.86c-.36 0-.59.033-.69.1-.1.067-.15.24-.15.52v9.52zm41.853 0h-12.71v-14.22l-.28-2.24h12.99c1.514 0 2.677.187 3.49.56.814.373 1.377.927 1.69 1.66.32.74.48 1.66.48 2.76v6.47c0 1.12-.153 2.047-.46 2.78-.313.74-.873 1.297-1.68 1.67-.813.373-1.986.56-3.52.56zm-9.01-13.78v11.09h8.79c1.434 0 2.16-.663 2.18-1.99v-7.14c0-.54-.156-1-.47-1.38-.32-.387-.89-.58-1.71-.58h-8.79zm33.878 13.78h-15.29v-16.46h17.42v2.68h-13.72v3.87h10.47v2.77h-10.47v4.45h13.83l1.12 2.38c0 .073-.254.143-.76.21-.5.067-1.367.1-2.6.1zm8.677 0h-4.48l1.06-1.68 6.22-6.55-7.28-8.23h4.48l5.4 6.18h.31l5.43-6.18h4.48l-1.09 1.65-6.19 6.58 7.28 8.23h-4.48l-5.43-6.24h-.31l-5.4 6.24z" style="white-space:pre" fill="#05aac5"/></svg>